<svg xmlns="http://www.w3.org/2000/svg" viewBox="0 0 512 512">
  <defs>
    <linearGradient id="grad1" x1="0%" y1="0%" x2="100%" y2="100%">
      <stop offset="0%" style="stop-color:#22c55e;stop-opacity:1" />
      <stop offset="100%" style="stop-color:#15803d;stop-opacity:1" />
    </linearGradient>
  </defs>
  <rect width="512" height="512" rx="100" fill="url(#grad1)"/>
  <g transform="translate(256, 256)">
    <!-- Recycle symbol stylized -->
    <path d="M0 -120 L60 -60 L30 -60 L30 0 L-30 0 L-30 -60 L-60 -60 Z" fill="white" opacity="0.9"/>
    <path d="M0 -120 L60 -60 L30 -60 L30 0 L-30 0 L-30 -60 L-60 -60 Z" fill="white" opacity="0.9" transform="rotate(120)"/>
    <path d="M0 -120 L60 -60 L30 -60 L30 0 L-30 0 L-30 -60 L-60 -60 Z" fill="white" opacity="0.9" transform="rotate(240)"/>
    <!-- Center circle -->
    <circle cx="0" cy="0" r="40" fill="white"/>
    <path d="M-15 10 L0 -10 L15 10 L10 10 L10 25 L-10 25 L-10 10 Z" fill="#22c55e"/>
  </g>
</svg>